# xmcd
#
# Track frame offsets:
#	150
#	21755
#	32210
#	44420
#	62945
#	78440
#	94915
#	113975
#	129030
#	149167
#	159347
#	172307
#	192832
#
# Disc length: 2811 seconds
#
# Revision: 1
# Processed by: cddbd v1.5.2PL0 Copyright (c) Steve Scherf et al.
# Submitted via: audiograbber 1.83.01
#
DISCID=b80af90d
DTITLE=Charles Wood - Somewhere Over The Rainbow
DYEAR=2000
DGENRE=Bluegrass
TTITLE0=Somewhere Over The Rainbow
TTITLE1=Limerock
TTITLE2=Last Date
TTITLE3=Backspin
TTITLE4=Send In The Clowns
TTITLE5=William Tell Overture
TTITLE6=Love Me Tender
TTITLE7=Dixie
TTITLE8=Minor Swing
TTITLE9=The Entertainer
TTITLE10=Mr Sandman
TTITLE11=The Cliffs Of Dover
TTITLE12=Five Falls
EXTD=
EXTT0=
EXTT1=
EXTT2=
EXTT3=
EXTT4=
EXTT5=
EXTT6=
EXTT7=
EXTT8=
EXTT9=
EXTT10=
EXTT11=
EXTT12=
PLAYORDER=
